<svg width="180" height="150" viewBox="0 0 180 150" fill="none" xmlns="http://www.w3.org/2000/svg">
<rect width="180" height="150" rx="40" fill="#2980B9"/>
<path d="M54.25 66.7728L76.75 53.7824C80.098 51.8494 82.5598 50.4296 84.4962 49.6647C86.4284 48.9014 87.7005 48.8463 88.75 49.4523C89.7995 50.0582 90.3878 51.1874 90.6929 53.2424C90.9987 55.3018 91 58.1437 91 62.0096V87.9904C91 91.8563 90.9987 94.6982 90.6929 96.7576C90.3878 98.8126 89.7995 99.9418 88.75 100.548C87.7005 101.154 86.4284 101.099 84.4962 100.335C82.5598 99.5704 80.098 98.1506 76.75 96.2176L54.25 83.2272C50.902 81.2943 48.4415 79.8722 46.8109 78.5777C45.1838 77.286 44.5 76.2118 44.5 75C44.5 73.7882 45.1838 72.714 46.8109 71.4223C48.4415 70.1278 50.902 68.7057 54.25 66.7728Z" fill="white" stroke="white"/>
<line x1="82.5" y1="73.5" x2="135.5" y2="73.5" stroke="white" stroke-width="11" stroke-linecap="round"/>
</svg>
